<svg version="1.1" id="Layer_1" xmlns="http://www.w3.org/2000/svg" xmlns:xlink="http://www.w3.org/1999/xlink" x="0px" y="0px"
	 width="100%" viewBox="0 0 1024 384" enable-background="new 0 0 1024 384" xml:space="preserve">
<path fill="#000000" opacity="1.000000" stroke="none" 
	d="
M384.582672,184.048431 
	C410.406067,187.189560 433.871246,195.617584 455.477112,209.238876 
	C457.230164,210.344070 458.975311,210.912979 461.123444,210.638855 
	C469.878143,209.521561 478.506287,209.312119 487.281433,211.533096 
	C497.633209,214.153107 502.276215,223.196045 494.993896,230.708817 
	C488.223663,237.693314 488.708008,243.121246 493.232697,250.369644 
	C495.198578,253.518967 495.935638,257.520264 496.816376,261.232941 
	C497.431793,263.827057 498.317413,266.765869 495.584686,269.019592 
	C492.625641,268.185516 493.058929,265.741425 492.844482,263.716949 
	C492.151367,257.173706 490.222748,251.046906 487.129547,245.233688 
	C485.799530,242.734085 484.558167,241.698471 481.725952,243.464035 
	C460.848297,256.478699 437.939178,264.389526 414.076111,269.637543 
	C403.370789,271.991821 392.538971,274.004974 381.446411,273.336578 
	C378.504272,273.159271 375.967773,273.627563 374.114044,276.467560 
	C363.237091,293.131958 355.818512,310.754791 357.244568,331.263214 
	C358.463989,348.799286 375.574951,363.843384 392.711304,361.497253 
	C389.646240,356.404480 387.015442,351.288116 385.815094,345.564758 
	C382.479523,329.660797 386.974335,315.490997 395.865997,302.589752 
	C409.165802,283.292633 427.044159,271.014893 450.812622,268.236725 
	C467.408112,266.296967 478.713745,276.086212 479.085785,292.717194 
	C479.441376,308.612274 473.084564,321.912628 463.105957,333.637146 
	C447.712402,351.723999 427.837616,361.961090 403.402924,365.842987 
	C413.258118,371.992157 422.798798,373.528656 433.194458,372.000824 
	C443.423035,370.497528 452.376801,366.294464 460.409729,359.728729 
	C462.164581,363.076447 460.189911,364.263611 458.608032,365.284088 
	C440.815186,376.761566 418.522400,380.918243 399.688721,367.278748 
	C398.012604,366.064819 396.358765,365.344879 394.224640,365.264221 
	C358.766815,363.924591 336.958557,330.213959 345.884064,298.705597 
	C348.492065,289.498901 352.635834,281.018890 357.496704,272.268890 
	C353.462097,269.612915 348.818848,269.765503 344.704285,268.463623 
	C335.438721,265.531830 326.582031,262.039154 318.770844,256.010712 
	C300.173828,241.658157 301.479675,214.747360 320.591095,200.108795 
	C335.213470,188.908630 352.306854,185.152954 370.141083,183.823654 
	C374.772217,183.478470 379.462189,183.922379 384.582672,184.048431 
M370.841431,256.345184 
	C393.180573,233.160431 421.269562,220.321228 452.775757,212.030975 
	C451.030273,210.837982 450.400299,210.305527 449.686493,209.934265 
	C423.272736,196.195450 395.222748,189.144501 365.460449,191.492798 
	C349.151611,192.779587 333.962585,198.362457 321.499207,209.760101 
	C306.200684,223.750381 307.439880,243.840561 324.332794,255.812103 
	C332.489929,261.592865 341.785828,264.584869 351.189301,267.530884 
	C357.267365,269.435059 361.705200,268.658325 364.978516,262.741943 
	C366.228790,260.482025 368.533081,258.805237 370.841431,256.345184 
M464.425446,321.936646 
	C470.927551,311.833221 475.672668,301.249817 474.827911,288.764465 
	C474.272919,280.562317 469.863129,274.556458 462.029083,272.338104 
	C454.410522,270.180756 447.047485,271.505859 440.157684,274.680023 
	C420.618530,283.681854 406.665802,298.552856 397.409393,317.710083 
	C391.074554,330.820679 389.585144,344.433380 396.123230,358.164734 
	C397.497589,361.051239 399.193390,362.569946 402.652649,362.151520 
	C406.277679,361.713135 409.935455,361.723114 413.479492,360.587830 
	C434.755432,353.772522 451.044617,340.364319 464.425446,321.936646 
M394.274658,251.772705 
	C389.120728,257.243591 383.826813,262.603302 379.616760,269.083588 
	C382.191345,270.322815 384.195587,269.914429 386.166748,269.825165 
	C397.831604,269.296997 409.337860,267.608856 420.617096,264.623505 
	C441.438873,259.112488 461.533630,251.779724 479.999878,240.437576 
	C482.911835,238.649033 483.135468,236.889053 480.803131,234.541687 
	C476.931732,230.645355 472.944031,226.850800 469.271637,222.773544 
	C462.811798,215.601471 455.938477,214.187653 446.654968,218.096573 
	C427.371185,226.216248 410.142761,237.205307 394.274658,251.772705 
M494.794495,223.295074 
	C495.399811,218.677689 492.867889,216.143448 488.940674,214.611618 
	C482.029205,211.915802 474.826477,213.279510 467.732178,213.208176 
	C466.683319,213.197632 465.297028,212.904312 464.744751,215.238846 
	C470.397552,219.547516 476.090973,224.303391 480.860229,230.063995 
	C486.360565,236.707642 487.882996,236.493393 492.725464,229.120728 
	C493.737640,227.579681 494.589508,225.972336 494.794495,223.295074 
z"/>
<path fill="#000000" opacity="1.000000" stroke="none" 
	d="
M551.634033,187.390228 
	C541.085205,187.389343 530.990845,187.389343 520.813782,187.389343 
	C520.936829,186.300735 520.913513,185.735352 521.015869,185.711594 
	C530.113831,183.600403 531.585144,176.490860 531.642578,168.876205 
	C531.856445,140.547302 531.865784,112.216812 531.944702,83.886894 
	C531.961182,77.966026 531.947144,72.045074 531.058899,65.977402 
	C517.156738,103.304123 503.254547,140.630844 489.352356,177.957581 
	C488.677704,178.054077 488.003052,178.150589 487.328430,178.247086 
	C469.762512,142.069992 453.269684,105.371788 435.269653,69.068298 
	C435.269653,70.625809 435.268799,72.183319 435.269775,73.740829 
	C435.284698,97.572136 435.275818,121.403503 435.331055,145.234726 
	C435.345764,151.581863 436.174408,157.880768 437.685608,164.021484 
	C440.244843,174.420746 444.089905,183.912201 456.826019,186.085464 
	C450.198761,187.596909 443.864899,188.089813 437.487457,186.387634 
	C436.852844,186.218262 436.273193,185.844910 435.666229,185.570160 
	C429.140717,182.616211 429.505341,182.689468 430.882385,175.811722 
	C431.985870,170.300339 432.487488,164.586349 432.523987,158.957535 
	C432.687164,133.794174 432.639954,108.628929 432.539246,83.464874 
	C432.519287,78.479195 432.172455,73.464745 431.539154,68.519547 
	C430.817169,62.881783 429.354980,57.526283 422.248352,56.738369 
	C421.731384,56.681053 421.284424,55.992188 420.647034,55.466805 
	C422.561615,52.936932 425.087494,54.217571 427.198181,53.817425 
	C438.731506,51.630978 444.796997,56.403526 449.582794,67.329460 
	C461.939941,95.540817 475.807251,123.091156 489.112061,150.886032 
	C490.155457,153.065781 490.886932,155.497940 493.097076,157.409897 
	C495.928955,153.695404 496.863922,149.433716 498.349152,145.487320 
	C509.260010,116.496483 520.088257,87.474220 530.807373,58.411976 
	C532.045105,55.056072 533.885925,53.654282 537.426636,53.793571 
	C542.251648,53.983387 547.091370,53.768177 551.922546,53.854229 
	C553.464233,53.881687 555.348267,53.217579 556.346802,55.199284 
	C556.210205,55.521046 556.134277,56.038998 555.952759,56.079105 
	C546.366455,58.197353 545.510559,65.869102 545.367432,73.481270 
	C544.772156,105.140511 544.823730,136.805099 545.351318,168.465897 
	C545.400696,171.427673 546.133362,174.396545 546.724487,177.326706 
	C547.752625,182.423981 551.364502,184.938782 556.754028,185.297729 
	C555.097290,187.966797 553.445374,187.151505 551.634033,187.390228 
z"/>
<path fill="#000000" opacity="1.000000" stroke="none" 
	d="
M865.503418,51.371639 
	C877.712524,50.496632 889.277161,50.860069 900.136658,56.266895 
	C914.646973,63.491409 922.571960,78.617638 919.962646,94.254486 
	C917.451355,109.303619 905.184753,120.714554 889.609009,123.443390 
	C879.316895,125.246544 870.209900,122.577202 861.209778,118.197334 
	C858.508423,116.882713 854.713257,114.070274 852.822449,117.593742 
	C850.661133,121.621292 855.387512,123.028931 858.156799,124.453842 
	C864.369141,127.650436 870.798950,130.422302 877.039001,133.567856 
	C883.604370,136.877380 888.571594,141.933380 892.338745,148.240646 
	C894.729126,152.242767 897.202332,156.203735 899.817383,160.061813 
	C907.078186,170.773468 913.599182,182.310471 928.318237,185.689819 
	C925.386658,188.293945 922.644592,187.317825 920.210815,187.329437 
	C902.546875,187.413757 902.514954,187.392807 892.613159,172.567886 
	C887.618713,165.090302 882.692261,157.565094 877.864441,149.979126 
	C872.504883,141.557800 865.653564,134.648407 857.482727,128.958771 
	C855.310486,127.446236 853.195923,125.744347 851.420349,123.796242 
	C849.273315,121.440567 848.390686,118.383644 850.090759,115.504784 
	C851.790222,112.626938 854.921570,112.579788 857.701172,113.524796 
	C861.945068,114.967613 866.017090,116.907188 870.204468,118.526451 
	C880.314880,122.436188 889.776672,121.141113 897.490173,113.495125 
	C914.065613,97.064789 910.352051,64.504906 884.272522,56.753685 
	C872.078308,53.129387 859.975098,53.799400 847.849670,57.171482 
	C845.072571,57.943802 844.142700,59.485462 844.150757,62.189526 
	C844.254089,97.003281 844.288086,131.817276 844.424683,166.630875 
	C844.435730,169.440979 845.000610,172.259552 845.431396,175.055161 
	C846.321045,180.827667 849.075867,184.989258 856.261108,185.152344 
	C855.938110,185.673096 855.615173,186.193832 855.292236,186.714584 
	C843.766174,186.714584 832.240112,186.714584 820.687256,186.714584 
	C820.706970,186.370361 820.652710,185.818085 820.752563,185.788635 
	C828.411621,183.530411 830.407837,177.779495 830.868225,170.537262 
	C832.603394,143.241425 831.253113,115.927025 831.608826,88.624916 
	C831.688843,82.479454 831.192261,76.315582 830.735046,70.177025 
	C830.257202,63.760063 828.905273,57.798798 821.088684,56.425785 
	C820.742432,56.364952 820.497253,55.729347 819.181641,54.073418 
	C835.216797,54.125607 850.171753,53.269009 865.503418,51.371639 
z"/>
<path fill="#000000" opacity="1.000000" stroke="none" 
	d="
M722.893188,111.999870 
	C723.449890,127.470657 721.730408,142.423294 723.165833,157.432587 
	C725.329041,180.050354 745.515625,193.446793 767.009766,185.996292 
	C778.887695,181.879059 787.443604,169.933228 787.587524,155.682388 
	C787.863403,128.364746 787.659790,101.041779 787.546387,73.721474 
	C787.534790,70.921677 786.820312,68.119377 786.371460,65.327965 
	C785.459167,59.653408 781.569397,56.986694 775.659973,56.204952 
	C779.303589,53.388161 807.389160,53.004139 811.961426,55.115093 
	C812.065369,55.906380 811.632874,56.481068 810.956238,56.573399 
	C803.185425,57.633686 801.943542,63.555706 801.345764,69.725632 
	C800.542786,78.013268 800.260681,86.330383 800.309204,94.669411 
	C800.416748,113.161232 800.361694,131.654190 800.330383,150.146591 
	C800.295837,170.562286 790.033386,183.802124 770.182190,188.704620 
	C758.270752,191.646271 746.395874,191.139282 734.822449,186.937271 
	C719.290527,181.297989 710.005920,167.998306 709.927856,151.284760 
	C709.818848,127.961784 709.842773,104.638206 709.797302,81.314903 
	C709.787231,76.151550 709.727112,71.000854 708.627136,65.903831 
	C707.641907,61.338402 705.794250,57.720100 700.625488,56.926563 
	C699.660889,56.778473 698.691772,56.398365 698.381897,54.500164 
	C710.387939,54.500164 722.248535,54.500164 733.960022,54.500164 
	C734.455017,55.653576 734.006714,56.333023 733.397949,56.439739 
	C724.743652,57.956841 723.639709,64.743408 723.409729,71.527107 
	C722.958252,84.841904 723.035339,98.174614 722.893188,111.999870 
z"/>
<path fill="#000000" opacity="1.000000" stroke="none" 
	d="
M668.997803,70.014191 
	C687.372314,91.655777 690.619812,116.256767 684.297546,142.607437 
	C679.987488,160.571350 670.075073,174.896713 653.597839,183.842484 
	C628.407776,197.518570 596.321045,189.572739 580.885193,165.307022 
	C563.379211,137.787140 562.445740,108.943588 578.246216,80.513771 
	C597.520386,45.833797 641.549133,40.951145 668.997803,70.014191 
M591.581238,77.102753 
	C582.320801,93.727844 579.933655,111.789490 581.523132,130.333572 
	C582.881897,146.185608 587.898071,160.913010 598.477722,173.332657 
	C613.496155,190.963013 635.652649,192.493607 652.741821,176.954376 
	C656.718140,173.338684 659.969421,169.141495 662.710571,164.523270 
	C672.832275,147.470001 675.291138,128.807861 673.351074,109.552742 
	C671.793213,94.090591 667.120117,79.526871 656.457458,67.598396 
	C649.142334,59.414871 640.067322,54.543720 628.944031,54.253456 
	C611.959106,53.810242 600.400330,62.596474 591.581238,77.102753 
z"/>
<path fill="#000000" opacity="1.000000" stroke="none" 
	d="
M602.960999,359.949219 
	C598.146118,359.108856 594.763306,355.121338 593.907654,349.103455 
	C593.651184,347.299713 593.645752,345.456055 593.593750,343.628723 
	C593.543884,341.876312 593.582947,340.121429 593.582947,337.414337 
	C586.995972,345.317413 581.324951,352.723297 573.764282,358.267975 
	C564.440247,365.105774 552.950684,361.541412 551.071960,351.088135 
	C550.497925,347.894348 550.982910,344.510223 550.982910,340.957855 
	C549.985352,341.306610 549.244019,341.565765 548.249084,341.908783 
	C547.995544,341.992615 548.015198,342.004486 548.015198,342.004456 
	C556.070496,329.003693 564.126282,316.003204 572.180054,303.001495 
	C572.706177,302.152161 573.217163,301.293396 573.734253,300.438446 
	C578.761292,292.127197 582.857788,290.640778 592.625427,293.615631 
	C593.370972,295.716064 591.738159,297.019379 590.845703,298.510223 
	C582.551514,312.366486 574.166931,326.168793 565.908997,340.046570 
	C563.696472,343.764801 561.949890,347.720215 560.897522,351.976379 
	C560.238037,354.643616 560.353882,356.998688 562.647400,358.730286 
	C564.873962,360.411316 567.118103,359.446045 569.191284,358.267090 
	C578.283569,353.096558 584.403748,344.877747 590.498108,336.791534 
	C607.161804,314.681610 620.507996,290.409515 635.360046,267.117371 
	C641.625854,257.290894 647.785461,247.396484 653.961243,237.512878 
	C654.958557,235.916916 655.953308,233.964111 658.104126,234.684387 
	C661.823853,235.930069 665.598083,235.193863 669.250000,235.256958 
	C670.071289,237.470917 668.640564,238.694595 667.806458,240.025543 
	C654.366516,261.470337 640.869507,282.879395 627.471619,304.350311 
	C626.885071,305.290344 624.312805,306.276184 626.923096,308.251892 
	C625.686340,310.651245 624.419983,312.788666 622.977478,314.799866 
	C616.790222,323.426697 610.404175,331.921143 605.142395,341.168030 
	C601.772522,347.090210 599.452942,353.198242 602.960999,359.949219 
z"/>
<path fill="#000000" opacity="1.000000" stroke="none" 
	d="
M398.757996,174.191376 
	C390.987579,174.440338 388.249054,170.516968 386.155731,163.640350 
	C382.259186,150.840225 376.801086,138.515442 371.649963,126.047104 
	C371.618073,136.745972 371.362183,147.323517 368.308441,157.623825 
	C367.119354,161.634583 365.649689,165.512650 363.646423,169.178192 
	C362.496521,171.282272 361.138458,173.143036 357.706421,171.970947 
	C361.034698,165.684738 364.620239,159.703903 366.206055,152.867111 
	C370.173584,135.762131 370.190399,118.977310 363.155457,102.480774 
	C359.435760,93.758354 356.384521,84.751266 353.009705,75.880981 
	C352.432281,74.363281 352.179932,72.658028 350.465973,71.277473 
	C347.294373,77.058914 345.546448,83.273064 343.199951,89.225914 
	C340.819458,95.265053 338.499817,101.330513 336.304840,107.438812 
	C335.744324,108.998718 334.198364,111.092003 336.482178,112.316895 
	C338.414124,113.353058 339.892029,111.584396 341.169128,110.318398 
	C342.822754,108.679138 344.285797,106.848755 345.919922,105.188301 
	C347.314270,103.771523 348.728027,102.333054 350.324371,101.165581 
	C352.622986,99.484489 355.283539,98.797585 357.718353,100.708893 
	C360.245087,102.692368 360.509460,105.463470 359.435638,108.407356 
	C357.962677,112.445488 355.373566,115.582405 351.972260,118.184822 
	C344.308044,124.048805 335.873230,128.872604 328.809601,135.551773 
	C321.487457,142.475388 316.831573,150.496185 316.860046,160.945755 
	C316.880890,168.602982 319.002808,175.021667 325.496887,179.569534 
	C326.130737,180.013428 326.556244,180.754822 327.078766,181.358459 
	C317.356506,189.786163 314.495728,188.849136 308.423645,179.792053 
	C300.663483,168.217056 302.891174,152.707352 313.199860,141.117447 
	C319.939178,133.540512 328.351288,128.156326 336.711060,122.676025 
	C340.610931,120.119415 344.532349,117.593475 348.377930,114.957245 
	C350.157074,113.737617 351.968445,112.464188 353.424072,110.898087 
	C355.384430,108.788963 358.652374,106.108284 355.646057,103.364708 
	C352.838806,100.802780 350.611816,104.341034 348.829926,106.292870 
	C346.363556,108.994453 344.279327,112.075829 341.253693,114.206596 
	C339.135803,115.698120 336.661102,116.535507 334.246216,115.015381 
	C331.664093,113.389969 331.788727,110.745918 332.710388,108.303894 
	C339.587860,90.081444 346.550415,71.891106 353.487640,53.691216 
	C353.853577,52.731144 354.309113,51.853134 356.966156,51.505478 
	C372.429413,92.185852 388.020447,133.202271 403.590942,174.164795 
	C401.967316,175.575989 400.562347,174.300003 398.757996,174.191376 
z"/>
<path fill="#000000" opacity="1.000000" stroke="none" 
	d="
M78.940735,132.961731 
	C71.759827,114.075935 64.833237,95.507072 57.609127,77.054680 
	C54.133045,68.175797 51.404785,58.485519 40.207634,55.049484 
	C55.051468,53.726215 69.554062,53.515694 84.840416,54.321011 
	C82.785660,57.648041 80.557243,56.895378 78.705978,57.127636 
	C71.767365,57.998154 68.676422,61.566235 68.976570,68.468735 
	C69.130653,72.012093 70.077599,75.363800 71.322792,78.644699 
	C82.666962,108.534943 94.019485,138.422012 105.381531,168.305466 
	C105.668274,169.059631 106.091957,169.761734 106.717918,171.025375 
	C109.892365,165.162903 111.554520,159.266342 113.619232,153.549973 
	C122.218147,129.742920 130.768600,105.918266 139.275726,82.078262 
	C140.616089,78.322075 141.767471,74.497368 141.715729,70.407860 
	C141.617950,62.679329 137.887665,58.310398 130.276428,57.141380 
	C128.973526,56.941265 127.681648,56.649464 126.403343,56.326225 
	C126.151344,56.262505 125.985153,55.859451 125.784782,55.608391 
	C128.461990,53.274403 158.960449,52.997982 163.755493,55.630981 
	C150.035751,59.694504 148.097595,72.077789 144.033264,82.618790 
	C130.853043,116.802208 118.088127,151.145721 105.132271,185.415833 
	C104.502655,187.081238 104.171715,189.008530 101.216766,190.521942 
	C92.961487,171.726669 86.535332,152.313873 78.940735,132.961731 
z"/>
<path fill="#000000" opacity="1.000000" stroke="none" 
	d="
M223.999603,187.397186 
	C216.280594,187.393631 209.061554,187.393631 201.659088,187.393631 
	C201.947144,186.152603 201.971558,185.604355 202.094391,185.581329 
	C210.666061,183.975449 212.475662,177.406204 212.636078,170.306778 
	C213.377548,137.491867 213.264969,104.670731 212.674088,71.853142 
	C212.632568,69.547653 211.989624,67.250107 211.594025,64.954430 
	C210.647705,59.463158 206.854721,56.925194 201.061218,56.331093 
	C204.474716,53.400795 232.690460,52.969784 237.300140,55.093849 
	C237.243759,55.402287 237.234589,55.955479 237.112076,55.981827 
	C227.529846,58.043003 226.494217,65.775406 226.426941,73.309418 
	C226.110031,108.794487 226.162415,144.282791 226.047287,179.769821 
	C226.037643,182.742142 226.379257,185.005066 230.244186,184.982468 
	C245.051575,184.895874 259.893646,185.351852 274.405090,181.554993 
	C279.411896,180.245010 284.282318,178.592941 288.640594,175.660522 
	C292.372070,173.149811 293.686279,168.988556 295.529083,164.490372 
	C298.151520,168.134811 296.998016,171.363281 297.208435,174.363708 
	C297.382812,176.850586 297.030731,179.381531 297.287689,181.853912 
	C297.757507,186.374649 295.709564,187.500153 291.476654,187.469986 
	C269.151947,187.310791 246.825455,187.398636 223.999603,187.397186 
z"/>
<path fill="#000000" opacity="1.000000" stroke="none" 
	d="
M494.976837,356.986938 
	C490.886475,360.738647 486.520752,363.633148 480.688446,360.945435 
	C475.035828,358.340515 473.204407,353.634857 472.724457,347.643463 
	C471.981293,338.366394 477.077942,331.379364 481.261139,324.135254 
	C497.912201,295.300598 514.885681,266.652313 531.606934,237.857910 
	C533.650513,234.338776 535.427795,231.995239 540.121826,233.481339 
	C542.669922,234.288071 545.683289,233.625153 548.654236,233.625153 
	C549.116211,237.093063 546.861572,239.137970 545.513489,241.456604 
	C526.099976,274.845490 505.364746,307.458588 486.855103,341.376740 
	C485.110382,344.573914 483.537903,347.941620 482.480957,351.411530 
	C481.732971,353.867126 481.401215,356.838745 484.067108,358.715820 
	C486.488647,360.420807 488.847809,359.354095 491.074219,358.080139 
	C492.083527,357.502655 492.986450,356.715881 494.634949,356.959686 
	C495.002838,357.006104 494.976837,356.986938 494.976837,356.986938 
z"/>
<path fill="#000000" opacity="1.000000" stroke="none" 
	d="
M495.013916,357.018158 
	C497.574677,351.012299 503.081726,347.423157 507.153778,342.695923 
	C518.408569,329.630432 527.377441,315.129578 535.853943,300.244080 
	C540.404663,292.252625 545.381470,290.527039 554.982727,293.787964 
	C553.784912,298.536407 550.597046,302.236603 548.189331,306.293304 
	C541.061707,318.302704 533.734070,330.193481 526.488831,342.133118 
	C524.482605,345.439148 523.094177,348.999359 522.507568,352.814850 
	C522.135620,355.233795 522.610229,357.552063 524.878723,358.952972 
	C527.035156,360.284668 528.982056,359.283661 530.919739,358.136993 
	C536.932007,354.579132 540.832031,348.858551 545.569580,343.994598 
	C546.145386,343.403412 546.830994,342.919128 547.740479,342.194885 
	C548.015198,342.004486 547.995544,341.992615 547.987183,341.983154 
	C544.047974,351.752014 537.316650,358.852722 527.141846,361.785339 
	C519.848267,363.887421 512.140808,355.905762 512.242981,346.934174 
	C512.270874,344.488190 512.863892,342.048676 513.250061,339.222046 
	C507.249115,345.215179 503.007874,352.591339 495.269531,356.819519 
	C494.976837,356.986938 495.002838,357.006104 495.013916,357.018158 
z"/>
<path fill="#000000" opacity="1.000000" stroke="none" 
	d="
M603.283752,360.302795 
	C609.849182,359.852295 615.435730,356.964050 620.442688,352.507660 
	C634.247131,340.221039 645.996033,326.458160 652.305420,308.741669 
	C653.135559,306.410797 653.817444,303.989014 653.610596,301.438293 
	C653.072144,294.796234 648.502747,292.208862 642.436462,295.047272 
	C636.674866,297.743164 633.346863,303.209686 628.279175,307.220764 
	C630.851318,299.071075 637.180725,294.181976 645.040649,291.402283 
	C650.141846,289.598206 654.622192,292.434570 657.991821,296.002075 
	C663.735046,302.082581 664.416992,309.724426 662.862793,317.521393 
	C661.326782,325.227386 657.294067,331.876526 651.909302,337.396210 
	C640.501404,349.089783 627.875366,358.992615 611.087891,361.838593 
	C608.384949,362.296844 605.791626,362.580414 603.283752,360.302795 
z"/>
<path fill="#000000" opacity="1.000000" stroke="none" 
	d="
M171.083191,57.713074 
	C173.100128,53.059151 176.324753,50.720058 181.033737,51.209122 
	C186.015823,51.726547 188.779648,55.082600 189.616547,59.691010 
	C191.273880,68.817169 189.238586,76.913406 181.721069,82.973801 
	C180.308075,84.112900 178.777863,85.868759 176.038925,84.199669 
	C179.949295,80.368660 184.551102,76.927986 183.542175,70.633629 
	C173.015152,69.415459 170.208481,66.589279 171.083191,57.713074 
z"/>
<path fill="#000000" opacity="1.000000" stroke="none" 
	d="
M342.553772,32.553978 
	C345.808807,29.514399 348.981659,30.221878 351.064301,32.979557 
	C355.221161,38.483704 359.973785,42.361530 367.275391,42.000511 
	C367.559052,41.986485 367.874420,42.613434 368.207458,42.977150 
	C361.942383,46.047131 348.727875,44.194614 344.291901,39.640282 
	C342.482849,37.782967 341.228088,35.651043 342.553772,32.553978 
z"/>
</svg>